<svg width="28" height="28" viewBox="0 0 28 28" fill="none" xmlns="http://www.w3.org/2000/svg">
<path d="M1.97241 12.338C1.875 12.6757 1.79473 13.2185 2.04773 13.7363C2.28946 14.2308 2.76253 14.5758 3.45487 14.7643C4.19154 17.2788 5.25911 19.3288 6.63032 20.8601C8.44329 22.8855 10.7535 23.9596 13.5004 24.0579L14.2039 25.934L12.5132 26.2722C12.4566 26.2835 12.4028 26.3058 12.3548 26.338C12.3069 26.3701 12.2657 26.4113 12.2337 26.4594C12.2017 26.5074 12.1794 26.5612 12.1682 26.6179C12.157 26.6745 12.1571 26.7328 12.1684 26.7894C12.1797 26.846 12.2021 26.8998 12.2342 26.9477C12.2663 26.9957 12.3076 27.0369 12.3556 27.0689C12.4036 27.1009 12.4575 27.1231 12.5141 27.1343C12.5707 27.1455 12.629 27.1455 12.6856 27.1342L16.7515 26.3211L17.0409 26.8998C17.0664 26.9519 17.102 26.9984 17.1456 27.0367C17.1892 27.0749 17.24 27.1042 17.2949 27.1228C17.3499 27.1413 17.408 27.1488 17.4659 27.1448C17.5237 27.1408 17.5802 27.1254 17.6321 27.0994C17.684 27.0735 17.7302 27.0375 17.7681 26.9936C17.8061 26.9497 17.8349 26.8988 17.853 26.8437C17.8712 26.7886 17.8782 26.7304 17.8737 26.6726C17.8693 26.6148 17.8534 26.5584 17.8271 26.5067L17.3876 25.6277C17.3444 25.5415 17.2741 25.4718 17.1875 25.4295C17.1009 25.3871 17.0028 25.3744 16.9083 25.3933L15.0771 25.7594L14.4307 24.0359C16.1576 23.8543 17.8182 23.2722 19.2804 22.3359C20.8456 21.331 22.1085 19.9497 23.0341 18.2304C24.1312 16.1922 24.7512 13.6741 24.8795 10.7405C24.9303 10.7285 24.981 10.7149 25.0315 10.6979C25.2212 10.6377 25.3933 10.5322 25.5331 10.3905C25.6729 10.2489 25.7762 10.0753 25.8339 9.88482C25.9619 9.47316 25.8892 8.96954 25.657 8.66007L25.3452 8.2438H26.6637C26.7287 8.2438 26.7929 8.22938 26.8517 8.20156C26.9105 8.17374 26.9624 8.13323 27.0036 8.08294C27.0448 8.03265 27.0744 7.97384 27.0901 7.91075C27.1059 7.84766 27.1074 7.78186 27.0947 7.71809C26.8236 6.36276 25.9669 5.86013 25.296 5.67718C25.1593 5.64022 25.0202 5.61312 24.8797 5.59609C24.8644 5.50907 24.8449 5.41897 24.8197 5.32689C25.2385 5.09644 25.5513 4.71232 25.6922 4.25559C25.7581 4.05892 25.7758 3.84931 25.7439 3.64437C25.712 3.43943 25.6313 3.24514 25.5088 3.07782C25.386 2.90853 25.225 2.77067 25.0389 2.6755C24.8527 2.58032 24.6467 2.53053 24.4376 2.53019H24.3908C24.2996 2.27329 24.1312 2.0509 23.9086 1.89352C23.686 1.73615 23.4202 1.65149 23.1476 1.65117H23.0723C22.9811 1.39428 22.8127 1.17188 22.5901 1.01451C22.3675 0.857129 22.1017 0.772474 21.8291 0.772156H20.9501C20.8335 0.772156 20.7217 0.818461 20.6393 0.900885C20.5569 0.983309 20.5106 1.0951 20.5106 1.21166V3.71044C19.1297 4.4114 18.5739 6.18915 18.1777 7.45725C18.0397 7.89868 17.8562 8.48624 17.7148 8.68325H4.7679L1.32649 7.3928C1.26494 7.36972 1.19899 7.36075 1.1335 7.36653C1.06802 7.37232 1.00467 7.39272 0.948112 7.42624C0.891558 7.45976 0.843243 7.50553 0.806726 7.5602C0.770209 7.61486 0.746421 7.67702 0.737112 7.7421C0.718543 7.87198 0.322326 10.8025 1.97241 12.338ZM24.9946 9.62364C24.9781 9.68133 24.947 9.7338 24.9044 9.77603C24.8618 9.81826 24.809 9.84884 24.7512 9.86482C24.5623 9.92639 24.3571 9.91442 24.1767 9.83131C24.1154 9.806 24.0606 9.76692 24.0168 9.71707C23.973 9.66723 23.9412 9.60796 23.924 9.54387C23.906 9.47902 23.9032 9.41091 23.9158 9.3448C23.9284 9.2787 23.956 9.21637 23.9965 9.16265L24.4661 8.53679L24.9539 9.18721C24.9974 9.24522 25.0498 9.44624 24.9946 9.62364ZM25.0901 6.53235C25.3052 6.58829 25.5048 6.69225 25.674 6.83643C25.8431 6.98061 25.9774 7.16125 26.0667 7.36478H24.4661V6.45011C24.6769 6.44861 24.8869 6.47629 25.0901 6.53235ZM21.3896 1.65117H21.8291C21.9456 1.6513 22.0573 1.69765 22.1397 1.78005C22.2221 1.86244 22.2685 1.97416 22.2686 2.09068C22.2686 2.20725 22.3149 2.31904 22.3973 2.40146C22.4797 2.48388 22.5915 2.53019 22.7081 2.53019H23.1476C23.2641 2.53032 23.3759 2.57667 23.4582 2.65906C23.5406 2.74146 23.587 2.85317 23.5871 2.9697C23.5871 3.08626 23.6334 3.19805 23.7158 3.28048C23.7983 3.3629 23.9101 3.40921 24.0266 3.40921H24.4376C24.5077 3.40889 24.5769 3.42542 24.6394 3.45739C24.7018 3.48937 24.7557 3.53587 24.7964 3.59298C24.8368 3.64789 24.8635 3.71169 24.8741 3.77903C24.8847 3.84636 24.8791 3.91527 24.8576 3.97996C24.7899 4.2051 24.6437 4.39848 24.4455 4.5249C24.4063 4.46936 24.3647 4.41436 24.3192 4.36052C23.7828 3.72928 22.945 3.40921 21.8291 3.40921C21.6821 3.40898 21.5352 3.4188 21.3896 3.4386V1.65117ZM19.0167 7.71941C19.6032 5.84216 20.2198 4.28822 21.8291 4.28822C22.6963 4.28822 23.7236 4.52995 23.9855 5.60741C23.9599 5.61153 23.9442 5.61455 23.9404 5.61526C23.8408 5.63519 23.7511 5.68902 23.6867 5.7676C23.6223 5.84618 23.5871 5.94465 23.5871 6.04626V7.80429C23.5872 7.9117 23.6267 8.01533 23.6982 8.09547L23.2935 8.63502C23.173 8.79551 23.0907 8.98141 23.0529 9.17855C23.0151 9.37569 23.0229 9.57885 23.0755 9.77254C23.1282 9.96622 23.2244 10.1453 23.3568 10.2962C23.4893 10.447 23.6544 10.5656 23.8396 10.643C23.8933 10.6652 23.9469 10.6848 24.0005 10.7016C23.8786 13.4888 23.2992 15.8719 22.2741 17.7877C21.4258 19.3729 20.2708 20.6465 18.8412 21.573C16.3913 23.161 13.9417 23.1871 13.9179 23.1871C8.30166 23.1871 5.66477 18.8541 4.42921 14.9458L6.24707 15.2488C6.832 15.7663 9.77962 18.2061 13.3442 18.2061C13.4763 18.2061 13.6093 18.2027 13.7432 18.1958C15.9101 18.0835 17.8551 17.0501 19.5241 15.1243C21.0709 13.3397 21.5862 11.8456 21.0555 10.6835C20.7279 9.96591 20.0258 9.42784 18.9689 9.08431C18.8342 9.04035 18.6981 9.00157 18.5618 8.96652C18.7264 8.64754 18.8595 8.22232 19.0167 7.71941ZM16.1155 9.56233C18.6679 9.56233 19.9279 10.3301 20.256 11.0486C20.6256 11.8582 20.1429 13.0684 18.8599 14.5486C17.3546 16.2852 15.6198 17.2169 13.703 17.3175C10.7091 17.4755 8.03054 15.5662 7.09746 14.8134C8.1569 13.7853 11.4533 10.6688 13.5845 9.56216L16.1155 9.56233ZM5.0838 9.56233H11.9072C9.825 10.9955 7.4094 13.2832 6.50067 14.1668C5.98056 13.401 4.94178 11.5943 5.0838 9.56233ZM1.56723 8.42186L4.21335 9.41399C4.04145 11.4357 4.87542 13.2176 5.49304 14.2321L3.88823 13.9647C3.33796 13.853 2.98514 13.6481 2.83956 13.3546C2.62931 12.9309 2.88235 12.399 2.88351 12.396C2.92959 12.304 2.94191 12.1987 2.91831 12.0985C2.89472 11.9983 2.83671 11.9096 2.7544 11.8478C1.64547 11.0161 1.54026 9.30554 1.56723 8.42186Z" fill="black"/>
<path d="M22.2687 6.48577C22.5116 6.48577 22.7084 6.28899 22.7084 6.04626C22.7084 5.80353 22.5116 5.60675 22.2687 5.60675C22.0259 5.60675 21.829 5.80353 21.829 6.04626C21.829 6.28899 22.0259 6.48577 22.2687 6.48577Z" fill="black"/>
</svg>
