<svg width="21" height="27" viewBox="0 0 21 27" fill="none" xmlns="http://www.w3.org/2000/svg">
<path d="M19.224 6.57563C19.1112 6.30321 18.7989 6.17386 18.5265 6.28675C18.4883 6.3026 18.452 6.3228 18.4185 6.34696L17.9813 6.66252C16.6721 3.61823 14.1056 0.120872 10.8378 0.120872C8.17707 0.120872 5.42089 2.66576 3.69462 6.65642L3.25711 6.34025C3.01793 6.16753 2.68408 6.22142 2.51136 6.46053C2.48712 6.49407 2.46685 6.53035 2.45099 6.56861C1.42413 9.04818 0.890126 11.704 0.878998 14.3877C0.878998 21.3446 4.88094 26.0185 10.8372 26.0185C16.1947 26.0185 20.7957 21.9873 20.7957 14.3877C20.7773 11.707 20.2436 9.05489 19.224 6.57563ZM10.8378 1.18798C13.2495 1.18798 15.3078 3.74323 16.4416 5.90244L16.3267 5.81951C16.1401 5.68414 15.8876 5.68414 15.7011 5.81951L14.2885 6.84088L12.879 5.81951C12.6899 5.69267 12.4428 5.69267 12.2537 5.81951L10.8415 6.84088L9.43198 5.81951C9.24531 5.68414 8.99271 5.68414 8.80605 5.81951L7.39686 6.84027L5.98768 5.81951C5.80109 5.68414 5.54864 5.68414 5.36205 5.81951L5.2218 5.92103C6.75386 2.99504 8.85269 1.18798 10.8378 1.18798ZM10.8378 24.9514C5.51998 24.9514 1.94671 20.7062 1.94671 14.3877C1.96264 12.0728 2.38346 9.77853 3.19004 7.60858L3.61474 7.91713C3.80377 8.06401 4.06659 8.07018 4.26232 7.93237L5.67456 6.911L7.08405 7.93207C7.27064 8.06744 7.52308 8.06744 7.70968 7.93207L9.11886 6.911L10.528 7.93176C10.7146 8.06713 10.9671 8.06713 11.1537 7.93176L12.5659 6.91039L13.9754 7.93146C14.162 8.06683 14.4144 8.06683 14.601 7.93146L16.0136 6.911L17.4231 7.93207C17.6141 8.07186 17.8748 8.06713 18.0606 7.92048L18.0651 7.91804L18.4856 7.61315C19.2926 9.78128 19.7135 12.074 19.7292 14.3874C19.7292 21.2901 15.6879 24.9514 10.8378 24.9514Z" fill="black"/>
<path d="M7.59117 22.5267C5.03257 21.2041 3.62308 18.3138 3.62308 14.3877C3.62308 14.0931 3.86196 13.8542 4.15663 13.8542C4.4513 13.8542 4.69018 14.0931 4.69018 14.3877C4.69018 17.8939 5.89417 20.4483 8.08051 21.5785C8.34233 21.7138 8.44493 22.0357 8.30963 22.2975C8.17434 22.5594 7.85238 22.662 7.59056 22.5267H7.59117Z" fill="black"/>
</svg>
