<svg width="26" height="27" viewBox="0 0 26 27" fill="none" xmlns="http://www.w3.org/2000/svg">
<path d="M10.3636 22.1749C9.70465 22.1749 9.16855 22.711 9.16855 23.37V24.3175C9.16855 24.9765 9.70465 25.5127 10.3636 25.5127C11.0226 25.5127 11.5587 24.9765 11.5587 24.3175V23.37C11.5587 22.711 11.0226 22.1749 10.3636 22.1749ZM10.8117 24.3175C10.8117 24.5646 10.6107 24.7657 10.3636 24.7657C10.1166 24.7657 9.91556 24.5646 9.91556 24.3175V23.37C9.91556 23.1229 10.1166 22.9219 10.3636 22.9219C10.6107 22.9219 10.8117 23.1229 10.8117 23.37V24.3175Z" fill="black"/>
<path d="M14.4445 15.6518V19.2135C14.4445 19.8725 14.9806 20.4086 15.6395 20.4086C16.2985 20.4086 16.8347 19.8725 16.8347 19.2135V16.022C17.062 15.9155 17.271 15.7694 17.4488 15.5915C17.8223 15.2179 18.0422 14.732 18.0782 14.2101L18.5928 14.7247C18.7065 14.8384 18.8318 14.9386 18.967 15.0241V15.802C18.967 16.461 19.5031 16.9971 20.1621 16.9971C20.8211 16.9971 21.3572 16.461 21.3572 15.802V14.977C21.4656 14.9023 21.5669 14.8179 21.66 14.7248C22.0697 14.3152 22.2953 13.7705 22.2953 13.1912C22.2953 13.0523 22.282 12.9155 22.2566 12.782C22.3185 12.7938 22.381 12.8031 22.4441 12.8095V13.6347C22.4441 14.2937 22.9802 14.8298 23.6392 14.8298C24.2982 14.8298 24.8343 14.2937 24.8343 13.6347V10.5013C24.8343 10.4645 24.8289 10.4283 24.8185 10.3938C24.7609 9.91256 24.5427 9.46221 24.1991 9.11859L23.6844 8.60395C24.2064 8.56799 24.6923 8.34807 25.0658 7.97456C25.9114 7.12895 25.9114 5.753 25.0658 4.90738L23.133 2.97451C22.987 2.82865 22.7506 2.82865 22.6047 2.97451C22.4589 3.12038 22.4589 3.35688 22.6047 3.50275L23.2074 4.10544V4.60863C23.2074 4.85569 23.0064 5.05674 22.7593 5.05674C22.5122 5.05674 22.3112 4.85569 22.3112 4.60863C22.3112 4.0399 21.8486 3.57725 21.2798 3.57725H18.7586C18.6596 3.38124 18.6069 3.16351 18.6069 2.93756C18.6069 2.55778 18.7548 2.20071 19.0234 1.93218C19.2919 1.66351 19.649 1.5156 20.0287 1.5156C20.4085 1.5156 20.7656 1.66351 21.0342 1.93203L21.4647 2.36256C21.6106 2.50843 21.8471 2.50843 21.9929 2.36256C22.1388 2.21669 22.1388 1.98019 21.9929 1.83437L21.5623 1.40389C21.1527 0.994183 20.6081 0.768585 20.0287 0.768585C19.4494 0.768585 18.9048 0.994183 18.4952 1.40384C18.1216 1.77735 17.9017 2.26326 17.8657 2.78522L17.3511 2.27058C16.9414 1.86092 16.3968 1.63532 15.8175 1.63532C15.2381 1.63532 14.6935 1.86092 14.2839 2.27058C13.8332 2.72118 13.6045 3.34458 13.6562 3.98084V3.98094C13.6626 4.05957 13.6738 4.13736 13.6886 4.21425C13.0059 4.08378 12.2723 4.28213 11.7449 4.80957C10.8993 5.65519 10.8993 7.03114 11.7449 7.87681L12.2595 8.39145C11.7375 8.4274 11.2516 8.64732 10.8781 9.02083C10.0325 9.86645 10.0325 11.2424 10.8781 12.088L11.4681 12.6781L5.22669 18.9196C5.08082 19.0655 5.08082 19.302 5.22669 19.4478C5.2996 19.5207 5.39522 19.5572 5.49078 19.5572C5.5864 19.5572 5.68197 19.5207 5.75488 19.4478L11.9964 13.2063L13.2633 14.4733L2.47938 25.2572C2.31016 25.4264 2.08521 25.5196 1.84591 25.5196C1.60662 25.5196 1.38162 25.4264 1.2124 25.2572C1.04322 25.088 0.949996 24.863 0.949996 24.6237C0.949996 24.3844 1.04317 24.1594 1.2124 23.9903L4.60383 20.5988C4.7497 20.453 4.7497 20.2165 4.60383 20.0706C4.45796 19.9248 4.22146 19.9248 4.07564 20.0706L0.684209 23.4621C0.37395 23.7723 0.203033 24.1849 0.203033 24.6238C0.203033 25.0626 0.37395 25.4752 0.684259 25.7855C0.994567 26.0957 1.40712 26.2667 1.84596 26.2667C2.28476 26.2667 2.69736 26.0957 3.00762 25.7855L13.7915 15.0016L14.4445 15.6518ZM15.8175 2.38233C16.1973 2.38233 16.5543 2.53024 16.8229 2.79877L18.568 4.54394V4.92242C18.568 5.16948 18.367 5.37048 18.1199 5.37048C17.8728 5.37048 17.6718 5.16943 17.6718 4.92237C17.6718 4.18059 17.0683 3.5771 16.3265 3.5771H14.4146C14.4617 3.28482 14.5987 3.01216 14.8121 2.79877C15.0806 2.53024 15.4377 2.38233 15.8175 2.38233ZM11.4063 11.5599C10.8519 11.0055 10.8519 10.1034 11.4063 9.54907C11.6749 9.28049 12.0319 9.13263 12.4117 9.13263C12.7915 9.13263 13.1486 9.28054 13.4171 9.54907C13.4172 9.54917 13.4173 9.54927 13.4174 9.54937L14.2012 10.3332C14.2742 10.4061 14.3698 10.4426 14.4654 10.4426C14.561 10.4426 14.6566 10.4062 14.7295 10.3332C14.8754 10.1874 14.8754 9.95086 14.7295 9.80504L12.2731 7.34867C11.7187 6.79429 11.7187 5.89224 12.2731 5.33786C12.8273 4.78363 13.729 4.78353 14.2834 5.33736C14.2836 5.33751 14.2837 5.33771 14.2839 5.33786L21.1318 12.1858C21.4004 12.4543 21.5483 12.8114 21.5483 13.1912C21.5483 13.5709 21.4003 13.928 21.1317 14.1966C21.0353 14.293 20.9254 14.3751 20.8052 14.4405C20.685 14.5059 20.6102 14.6317 20.6102 14.7686V15.802C20.6102 16.0491 20.4092 16.2501 20.1621 16.2501C19.915 16.2501 19.714 16.0491 19.714 15.802V14.8053C19.714 14.6624 19.6325 14.532 19.504 14.4695C19.3617 14.4002 19.2328 14.3084 19.121 14.1965L15.8879 10.9635C15.742 10.8176 15.5055 10.8176 15.3597 10.9635C15.2138 11.1093 15.2138 11.3458 15.3597 11.4916L16.9208 13.0528C17.1892 13.3213 17.337 13.6783 17.337 14.0579C17.337 14.4377 17.1891 14.7948 16.9205 15.0634C16.7584 15.2255 16.5657 15.3428 16.3478 15.4122C16.1929 15.4615 16.0876 15.6055 16.0876 15.7681V19.2135C16.0876 19.4606 15.8866 19.6616 15.6395 19.6616C15.3924 19.6616 15.1914 19.4606 15.1914 19.2135V15.4785C15.1914 15.3629 15.1379 15.2539 15.0466 15.1831L11.4063 11.5599ZM24.0873 10.5727V13.6347C24.0873 13.8817 23.8863 14.0828 23.6392 14.0828C23.3921 14.0828 23.1911 13.8818 23.1911 13.6347V12.4407C23.1911 12.3362 23.1473 12.2364 23.0703 12.1657C23.0011 12.1021 22.9108 12.0672 22.8176 12.0672C22.8071 12.0672 22.7966 12.0676 22.7861 12.0685C22.3673 12.1038 21.9566 11.9542 21.6601 11.6576L14.8121 4.80957C14.6731 4.67053 14.5653 4.50484 14.4944 4.32411H16.3265C16.6564 4.32411 16.9248 4.59249 16.9248 4.92242C16.9248 5.58139 17.461 6.11749 18.12 6.11749C18.6667 6.11749 19.1289 5.74842 19.2705 5.24633L23.6708 9.64673C23.9082 9.88413 24.0542 10.1991 24.082 10.5336C24.0831 10.5468 24.0849 10.5598 24.0873 10.5727ZM24.5376 7.44628C24.269 7.71485 23.9119 7.86271 23.5322 7.86271C23.1524 7.86271 22.7954 7.7148 22.5268 7.44628C22.5267 7.44618 22.5267 7.44613 22.5266 7.44603L19.4047 4.32411H21.2798C21.4366 4.32411 21.5642 4.45165 21.5642 4.60848C21.5642 5.26744 22.1003 5.8036 22.7593 5.8036C23.3422 5.8036 23.8286 5.38408 23.9333 4.83119L24.5376 5.43547C25.092 5.9899 25.092 6.89194 24.5376 7.44628Z" fill="black"/>
</svg>
