<svg width="27" height="26" viewBox="0 0 27 26" fill="none" xmlns="http://www.w3.org/2000/svg">
<path d="M2.65188 24.6987C2.86417 24.6987 3.07818 24.608 3.17707 24.4107C3.33761 24.0903 3.12315 23.7023 2.65557 23.4672C2.32831 23.3026 1.78876 23.2102 1.5873 23.6124C1.42675 23.9328 1.64122 24.3208 2.10879 24.5559C2.29594 24.6501 2.48441 24.6987 2.65188 24.6987Z" fill="black"/>
<path d="M7.08744 23.4671C6.56382 23.4671 6.19812 23.7177 6.19812 24.0764C6.19812 24.4351 6.56382 24.6856 7.08744 24.6856C7.61106 24.6856 7.97676 24.4351 7.97676 24.0764C7.97681 23.7177 7.61111 23.4671 7.08744 23.4671Z" fill="black"/>
<path d="M26.0698 11.3502C26.0698 8.36409 23.6441 5.93472 20.6626 5.93472C20.2671 5.93472 19.879 5.97711 19.5006 6.06032L19.9135 5.59077C20.406 5.03089 20.6771 4.31157 20.6771 3.56545V2.79762C20.6771 2.31705 20.2865 1.92606 19.8065 1.92606H19.5605V1.36445C19.5605 0.63512 18.9672 0.0418015 18.2379 0.0418015H14.0891C13.3597 0.0418015 12.7664 0.63512 12.7664 1.36445V1.92611H12.6712C12.191 1.92611 11.8005 2.3171 11.8005 2.79767V3.5655C11.8005 4.31157 12.0716 5.03084 12.5641 5.59082L13.466 6.61621C13.6225 6.7942 13.7086 7.02278 13.7086 7.26344C13.7086 7.47341 13.8788 7.64179 14.0888 7.64179C14.2987 7.64179 14.4689 7.46992 14.4689 7.25995C14.4689 6.83785 14.3155 6.43093 14.0368 6.11409L13.1349 5.0887C12.7646 4.66756 12.5607 4.1266 12.5607 3.5654V2.79757C12.5607 2.73617 12.6103 2.68619 12.6712 2.68619H19.8066C19.8675 2.68619 19.917 2.73612 19.917 2.79757V3.5654C19.917 4.12665 19.7131 4.66761 19.3428 5.0887L18.4409 6.11409C18.1623 6.43083 18.0089 6.8378 18.0089 7.26339C18.0089 8.62575 18.3929 9.95599 19.0964 11.1092H13.3833C13.7964 10.4329 14.1006 9.69367 14.2811 8.91133C14.3283 8.70678 14.2007 8.50274 13.9961 8.45549C13.7916 8.4083 13.5875 8.53592 13.5403 8.74047C13.2336 10.0704 12.5316 11.2641 11.5103 12.1928C10.0003 13.5658 8.20686 15.8658 8.14187 19.0707C7.92194 18.9653 7.68587 18.8944 7.4445 18.8597C7.42685 18.2662 7.4926 16.9084 8.32917 15.7512L8.49325 15.5389C8.62021 15.3747 8.59184 15.1389 8.42952 15.0093C8.26721 14.8798 8.03104 14.9045 7.89908 15.0649C7.8357 15.1418 7.77566 15.2196 7.7186 15.2981L6.31573 17.1133C6.23814 16.4148 6.00668 15.5374 5.37891 14.9086C4.19501 13.7227 2.1282 13.9477 2.0407 13.9578C1.86548 13.9782 1.7273 14.1165 1.70701 14.2917C1.69685 14.3792 1.47237 16.4488 2.65592 17.6343C3.38131 18.3609 4.43775 18.5576 5.16769 18.5989L4.63936 19.2825C3.47498 18.7512 2.17959 19.1795 1.23641 20.4168C1.10914 20.5837 1.14131 20.8222 1.30828 20.9495C1.47525 21.0768 1.71379 21.0446 1.841 20.8776C2.57312 19.9171 3.54964 19.5828 4.3898 20.0052C5.43996 20.5333 5.6428 21.8913 4.8945 23.3843C4.45322 24.2648 3.84721 24.8701 3.18798 25.0886C2.74752 25.2347 2.29836 25.2031 1.8889 24.9972C0.957247 24.5288 0.680517 23.4247 1.1666 22.1159C1.23969 21.9192 1.13944 21.7004 0.94268 21.6273C0.745918 21.5542 0.527104 21.6544 0.454014 21.8513C-0.168743 23.5278 0.260388 25.0293 1.54738 25.6764C2.13271 25.9708 2.80579 26.0164 3.42718 25.8102C3.99435 25.6222 4.50846 25.246 4.94786 24.7059C5.43804 25.4887 6.20364 25.9394 7.0877 25.9394C7.8574 25.9394 8.55218 25.5952 9.04398 24.9701C9.30984 24.6323 9.50862 24.2224 9.63755 23.7561C9.94514 24.22 10.2989 24.6823 10.6962 25.1385C11.1395 25.6476 11.7823 25.9395 12.4594 25.9395H20.0182C20.6954 25.9395 21.3381 25.6476 21.7815 25.1385C23.0127 23.7247 23.8092 22.2811 24.1488 20.8477C24.1972 20.6434 24.0708 20.4386 23.8665 20.3902C23.6622 20.3419 23.4575 20.4682 23.4091 20.6724C23.0981 21.9847 22.3577 23.3193 21.2082 24.6392C20.9092 24.9824 20.4755 25.1792 20.0182 25.1792H12.4594C12.0021 25.1792 11.5683 24.9824 11.2694 24.6392C10.6734 23.9549 10.1827 23.259 9.80892 22.5692C9.81464 22.3794 9.81181 22.1893 9.79941 21.9997C9.7417 21.1154 9.48348 20.3616 9.04388 19.8029C9.0022 19.7498 8.95815 19.6989 8.91272 19.649C8.90357 19.5141 8.89892 19.3804 8.89892 19.2499C8.89892 16.2289 10.5971 14.0506 12.0217 12.7553C12.3242 12.4803 12.6007 12.1837 12.8512 11.8695H19.6276C19.8776 12.1843 20.1541 12.481 20.4558 12.7553C21.8804 14.0507 23.5786 16.2289 23.5786 19.2499C23.5786 19.4599 23.7488 19.63 23.9587 19.63C24.1687 19.63 24.3389 19.4599 24.3389 19.2499C24.3389 17.9822 24.0675 16.8537 23.6467 15.8646C25.1494 14.8662 26.0698 13.1668 26.0698 11.3502ZM13.5266 1.36445C13.5266 1.05434 13.7789 0.802038 14.089 0.802038H18.2378C18.548 0.802038 18.8003 1.05434 18.8003 1.36445V1.92611H13.5266V1.36445ZM6.74284 17.8038C6.6827 18.2357 6.67561 18.6073 6.68315 18.8679C6.23738 18.942 5.82585 19.1375 5.47932 19.4386L6.74284 17.8038ZM3.1938 17.0973C2.50812 16.4105 2.43645 15.2521 2.4456 14.6958C2.99987 14.6853 4.15257 14.7564 4.84078 15.4457C5.52646 16.1326 5.59813 17.2909 5.58898 17.8472C5.03511 17.8581 3.88211 17.7866 3.1938 17.0973ZM9.05162 22.3865C9.05162 24.0569 8.26235 25.1792 7.0876 25.1792C6.36429 25.1792 5.76748 24.7505 5.42853 23.996C5.4783 23.908 5.52717 23.8183 5.57395 23.725C6.04502 22.7851 6.20789 21.8673 6.04492 21.071C5.98467 20.7766 5.88053 20.5051 5.73728 20.2625C6.08331 19.8293 6.55518 19.5936 7.08755 19.5936C8.26235 19.5937 9.05162 20.7161 9.05162 22.3865ZM20.9673 12.1929C20.0726 11.3794 19.4228 10.3498 19.0708 9.22458C19.5282 8.87982 20.0851 8.69206 20.6626 8.69206C22.1256 8.69206 23.3158 9.88447 23.3158 11.3502C23.3158 12.2103 22.8994 13.0104 22.2116 13.5065C21.8024 13.0017 21.3745 12.5633 20.9673 12.1929ZM23.316 15.1698C23.1178 14.7943 22.8997 14.4421 22.6695 14.1134C23.546 13.4748 24.076 12.4507 24.076 11.3502C24.076 9.4653 22.5448 7.93183 20.6627 7.93183C20.0266 7.93183 19.41 8.10871 18.8763 8.43774C18.8057 8.0512 18.769 7.65722 18.769 7.26001C18.769 7.20346 18.7742 7.14751 18.7838 7.09253C19.3766 6.82885 20.0077 6.69496 20.6627 6.69496C23.225 6.69496 25.3097 8.78331 25.3097 11.3502C25.3096 12.8753 24.5547 14.3041 23.316 15.1698Z" fill="black"/>
</svg>
